# File created by Blade
# Date/Time:  Wed Apr 08 14:47:28 2015
#---------------------------------------------------------
:version 1.10
:name HOM
:units
  mass 1.0
  length 1.000000
  angle deg
:documentation
     Acclaim Skeleton File
:root
   axis xyz
   order TX TY TZ RX RY RZ
   position 0.000000 0.000000 0.000000
   orientation 0 0 0
:bonedata
   begin
      id 1
      name Spine_dum
      direction 0.000000 1.000000 0.000000
      length 4.885285
      axis 0.0 0.0 0.0 xyz
   end
   begin
      id 2
      name LeftUpLeg_dum
      direction 1.000000 0.000000 0.000000
      length 2.672193
      axis 0.0 0.0 0.0 xyz
   end
   begin
      id 3
      name RightUpLeg_dum
      direction -1.000000 0.000000 0.000000
      length 2.672193
      axis 0.0 0.0 0.0 xyz
   end
   begin
      id 4
      name Spine
      direction 0.000000 1.000000 0.000000
      length 0.000000
      axis 0.0 0.0 0.0 xyz
      dof rx ry rz
   end
   begin
      id 5
      name Spine_dum1
      direction 0.000000 1.000000 0.000000
      length 16.494159
      axis 0.0 0.0 0.0 xyz
   end
   begin
      id 6
      name Spine_dum2
      direction 0.000000 1.000000 0.000000
      length 10.663448
      axis 0.0 0.0 0.0 xyz
   end
   begin
      id 7
      name Spine_dum3
      direction 0.000000 1.000000 0.000000
      length 10.663448
      axis 0.0 0.0 0.0 xyz
   end
   begin
      id 8
      name Head
      direction 0.000000 1.000000 0.000000
      length 4.527550
      axis 0.0 0.0 0.0 xyz
      dof rx ry rz
   end
   begin
      id 9
      name LeftShoulder
      direction 1.000000 0.000000 0.000000
      length 7.531907
      axis 0.0 0.0 -90.0 xyz
      dof rx ry rz
   end
   begin
      id 10
      name LeftArm
      direction 1.000000 0.000000 0.000000
      length 10.229199
      axis 0.0 0.0 -90.0 xyz
      dof rx ry rz
   end
   begin
      id 11
      name LeftForeArm
      direction 1.000000 0.000000 0.000000
      length 8.673495
      axis 0.0 0.0 -90.0 xyz
      dof ry rz rx
   end
   begin
      id 12
      name LeftHand
      direction 0.000000 0.000000 0.000000
      length 0.000000
      axis 0.0 0.0 -90.0 xyz
      dof rx ry rz
   end
   begin
      id 13
      name LeftHand_dum1
      direction 0.000000 0.000000 0.000000
      length 0.000000
      axis 0.0 0.0 -90.0 xyz
   end
   begin
      id 14
      name LeftHand_dum2
      direction 1.000000 0.000000 0.000000
      length 3.937000
      axis 0.0 0.0 -90.0 xyz
   end
   begin
      id 15
      name LeftHandThumb1
      direction 0.000000 0.000000 1.000000
      length 3.937000
      axis 0.0 0.0 -90.0 xyz
      dof rx rz ry
   end
   begin
      id 16
      name RightShoulder
      direction -1.000000 0.000000 0.000000
      length 7.531907
      axis 0.0 0.0 90.0 xyz
      dof rx ry rz
   end
   begin
      id 17
      name RightArm
      direction -1.000000 0.000000 0.000000
      length 10.229199
      axis 0.0 0.0 90.0 xyz
      dof rx ry rz
   end
   begin
      id 18
      name RightForeArm
      direction -1.000000 0.000000 0.000000
      length 8.673495
      axis 0.0 0.0 90.0 xyz
      dof ry rz rx
   end
   begin
      id 19
      name RightHand
      direction 0.000000 0.000000 0.000000
      length 0.000000
      axis 0.0 0.0 90.0 xyz
      dof rx ry rz
   end
   begin
      id 20
      name RightHand_dum1
      direction 0.000000 0.000000 0.000000
      length 0.000000
      axis 0.0 0.0 90.0 xyz
   end
   begin
      id 21
      name RightHand_dum2
      direction -1.000000 0.000000 0.000000
      length 3.937000
      axis 0.0 0.0 90.0 xyz
   end
   begin
      id 22
      name RightHandThumb1
      direction 0.000000 0.000000 1.000000
      length 3.937000
      axis 0.0 0.0 90.0 xyz
      dof rx rz ry
   end
   begin
      id 23
      name LeftUpLeg
      direction 0.000000 -1.000000 0.000000
      length 16.263388
      axis 0.0 0.0 0.0 xyz
      dof rx ry rz
   end
   begin
      id 24
      name LeftLeg
      direction 0.000000 -1.000000 0.000000
      length 14.328163
      axis 0.0 0.0 0.0 xyz
      dof rx ry rz
   end
   begin
      id 25
      name LeftFoot
      direction 0.000000 -0.258819 0.965926
      length 5.031290
      axis 15.0 0.0 0.0 xyz
      dof rx ry rz
   end
   begin
      id 26
      name LeftToeBase
      direction 0.000000 0.000000 1.000000
      length 2.952750
      axis 0.0 0.0 0.0 xyz
      dof rx ry rz
   end
   begin
      id 27
      name RightUpLeg
      direction 0.000000 -1.000000 0.000000
      length 16.263388
      axis 0.0 0.0 0.0 xyz
      dof rx ry rz
   end
   begin
      id 28
      name RightLeg
      direction 0.000000 -1.000000 0.000000
      length 14.328163
      axis 0.0 0.0 0.0 xyz
      dof rx ry rz
   end
   begin
      id 29
      name RightFoot
      direction 0.000000 -0.258819 0.965926
      length 5.031290
      axis 15.0 0.0 0.0 xyz
      dof rx ry rz
   end
   begin
      id 30
      name RightToeBase
      direction 0.000000 0.000000 1.000000
      length 2.952750
      axis 0.0 0.0 0.0 xyz
      dof rx ry rz
   end
:hierarchy
   begin
      root Spine_dum LeftUpLeg_dum RightUpLeg_dum
      Spine_dum Spine
      LeftUpLeg_dum LeftUpLeg
      RightUpLeg_dum RightUpLeg
      Spine Spine_dum1 Spine_dum2 Spine_dum3
      Spine_dum1 Head
      Spine_dum2 LeftShoulder
      Spine_dum3 RightShoulder
      LeftShoulder LeftArm
      LeftArm LeftForeArm
      LeftForeArm LeftHand
      LeftHand LeftHand_dum1 LeftHand_dum2
      LeftHand_dum1 LeftHandThumb1
      RightShoulder RightArm
      RightArm RightForeArm
      RightForeArm RightHand
      RightHand RightHand_dum1 RightHand_dum2
      RightHand_dum1 RightHandThumb1
      LeftUpLeg LeftLeg
      LeftLeg LeftFoot
      LeftFoot LeftToeBase
      RightUpLeg RightLeg
      RightLeg RightFoot
      RightFoot RightToeBase
   end

# File created by Blade
# Date/Time:  Wed Apr 08 14:47:20 2015
# Frame Rate: 120.000 fps
#------------------------------------------------------
:FULLY-SPECIFIED
:DEGREES
704
root -0.132398 33.098763 2.262297 -9.024179 68.329961 -26.266123
Spine -10.923754 -3.661981 1.735710
Head -18.714935 -52.090148 24.998115
LeftShoulder -25.685253 50.467947 1.932739
LeftArm 49.814513 8.507717 -71.090857
LeftForeArm 7.066217 -0.000000 127.503506
LeftHand 9.927697 0.000000 4.781559
LeftHandThumb1 -26.253704 0.000000 33.147579
RightShoulder -7.129989 -4.424472 -21.968061
RightArm 20.540923 -34.829084 76.171481
RightForeArm 8.046473 -0.000000 121.831835
RightHand 13.450907 -0.000000 -10.090347
RightHandThumb1 -24.326973 -0.000000 -32.862282
LeftUpLeg -17.663892 -1.211234 17.301834
LeftLeg 11.177915 -0.000000 -0.000000
LeftFoot -11.409655 14.595103 -14.664247
LeftToeBase -3.973133 -0.000000 0.000000
RightUpLeg -21.370476 -8.326121 5.528847
RightLeg 20.433227 -0.000000 -0.000000
RightFoot 1.443757 -21.755073 9.015966
RightToeBase -16.673348 -0.000000 0.000000
705
root -0.174313 33.065317 2.345483 -7.039452 67.586924 -24.172585
Spine -10.910531 -3.523039 1.436799
Head -18.469354 -51.525139 24.364495
LeftShoulder -25.744272 50.355641 1.709675
LeftArm 49.869807 8.671117 -71.285944
LeftForeArm 7.409982 -0.000000 127.448062
LeftHand 9.910664 -0.000000 4.688487
LeftHandThumb1 -26.253704 0.000000 33.147579
RightShoulder -6.974320 -4.449024 -22.049501
RightArm 20.670511 -34.772852 75.915080
RightForeArm 7.755444 0.000000 121.718765
RightHand 13.665804 -0.000000 -10.182472
RightHandThumb1 -24.326973 -0.000000 -32.862282
LeftUpLeg -17.550508 -1.059742 16.994657
LeftLeg 11.611955 -0.000000 -0.000000
LeftFoot -11.861999 14.613205 -15.301690
LeftToeBase -3.994348 -0.000000 0.000000
RightUpLeg -21.243073 -7.700008 5.037298
RightLeg 20.225418 -0.000000 -0.000000
RightFoot 0.651597 -21.446242 9.197986
RightToeBase -15.972300 -0.000000 0.000000
706
root -0.216383 33.034551 2.429566 -5.371923 66.828826 -22.422416
Spine -10.907313 -3.405888 1.213152
Head -18.242304 -50.969741 23.791158
LeftShoulder -25.734488 50.247787 1.563382
LeftArm 49.914418 8.891316 -71.510921
LeftForeArm 7.639404 -0.000000 127.381385
LeftHand 9.972562 -0.000000 4.768877
LeftHandThumb1 -26.253704 0.000000 33.147579
RightShoulder -6.821452 -4.425528 -22.120826
RightArm 20.684614 -34.682059 75.723933
RightForeArm 7.353060 -0.000000 121.634076
RightHand 13.599429 -0.000000 -10.158743
RightHandThumb1 -24.326973 -0.000000 -32.862282
LeftUpLeg -17.485570 -0.891964 16.765760
LeftLeg 12.111376 -0.000000 -0.000000
LeftFoot -12.278272 14.594404 -15.878807
LeftToeBase -4.129677 -0.000000 0.000000
RightUpLeg -21.174835 -7.116903 4.623772
RightLeg 20.104046 -0.000000 -0.000000
RightFoot -0.330541 -20.994172 9.761357
RightToeBase -14.919840 -0.000000 0.000000
707
root -0.254925 33.006848 2.510883 -3.930515 66.058035 -20.893938
Spine -10.902938 -3.374271 1.051386
Head -17.926932 -50.316352 23.147177
LeftShoulder -25.748387 50.211996 1.385985
LeftArm 49.966228 9.074304 -71.783259
LeftForeArm 7.873648 -0.000000 127.348357
LeftHand 9.949592 -0.000000 4.740941
LeftHandThumb1 -26.253704 0.000000 33.147579
RightShoulder -6.676448 -4.497955 -22.152646
RightArm 20.989326 -34.634605 75.282765
RightForeArm 7.125736 -0.000000 121.462886
RightHand 13.885557 -0.000000 -10.367903
RightHandThumb1 -24.326973 -0.000000 -32.862282
LeftUpLeg -17.431653 -0.674602 16.564770
LeftLeg 12.649107 -0.000000 -0.000000
LeftFoot -12.637389 14.510565 -16.413550
LeftToeBase -4.322208 -0.000000 0.000000
RightUpLeg -21.128462 -6.597898 4.255365
RightLeg 20.022466 -0.000000 -0.000000
RightFoot -1.029032 -20.456815 10.008538
RightToeBase -14.494871 -0.000000 0.000000
708
root -0.292094 32.981429 2.589150 -2.700307 65.296912 -19.595594
Spine -10.904097 -3.376428 0.954044
Head -17.627561 -49.660486 22.537012
LeftShoulder -25.688037 50.137365 1.271951
LeftArm 49.974082 9.263365 -72.047848
LeftForeArm 8.035251 -0.000000 127.314518
LeftHand 9.952667 -0.000000 4.679379
LeftHandThumb1 -26.253704 0.000000 33.147579
RightShoulder -6.500120 -4.499998 -22.259375
RightArm 21.025119 -34.547244 75.130181
RightForeArm 6.766155 -0.000000 121.339344
RightHand 13.460216 -0.000000 -10.309947
RightHandThumb1 -24.326973 -0.000000 -32.862282
LeftUpLeg -17.413117 -0.428071 16.394267
LeftLeg 13.203101 -0.000000 -0.000000
LeftFoot -13.010891 14.378957 -16.919837
LeftToeBase -4.329394 -0.000000 0.000000
RightUpLeg -21.115433 -6.119436 3.949775
RightLeg 19.977632 -0.000000 -0.000000
RightFoot -1.602395 -20.031201 10.177161
RightToeBase -14.283202 -0.000000 0.000000
709
root -0.327392 32.958799 2.664924 -1.631233 64.536932 -18.477739
Spine -10.905742 -3.389899 0.886187
Head -17.388668 -48.976952 22.035662
LeftShoulder -25.614603 50.072147 1.191886
LeftArm 49.991352 9.480383 -72.273284
LeftForeArm 8.075469 0.000000 127.304126
LeftHand 9.956854 -0.000000 4.669693
LeftHandThumb1 -26.253704 0.000000 33.147579
RightShoulder -6.376808 -4.537199 -22.304682
RightArm 21.117042 -34.505529 74.832103
RightForeArm 6.716841 -0.000000 121.215121
RightHand 13.748823 -0.000000 -10.822984
RightHandThumb1 -24.326973 -0.000000 -32.862282
LeftUpLeg -17.420124 -0.154077 16.254158
LeftLeg 13.760599 -0.000000 -0.000000
LeftFoot -13.304011 14.238035 -17.242075
LeftToeBase -4.349888 -0.000000 0.000000
RightUpLeg -21.132978 -5.719505 3.702864
RightLeg 19.978555 -0.000000 -0.000000
RightFoot -2.161557 -19.585815 10.448396
RightToeBase -13.989594 -0.000000 0.000000
710
root -0.361939 32.937489 2.736215 -0.704490 63.830459 -17.487890
Spine -10.912621 -3.501191 0.849733
Head -16.996840 -48.282830 21.421618
LeftShoulder -25.474185 50.103025 1.172955
LeftArm 50.043282 9.645753 -72.567556
LeftForeArm 8.126136 0.000000 127.285076
LeftHand 9.983302 -0.000000 4.524332
LeftHandThumb1 -26.253704 0.000000 33.147579
RightShoulder -6.208113 -4.602120 -22.382743
RightArm 21.227570 -34.426491 74.572221
RightForeArm 6.692224 -0.000000 121.029816
RightHand 13.884793 -0.000000 -10.834676
RightHandThumb1 -24.326973 -0.000000 -32.862282
LeftUpLeg -17.444146 0.028915 16.137550
LeftLeg 14.332912 -0.000000 -0.000000
LeftFoot -13.563886 14.111943 -17.540213
LeftToeBase -4.614811 -0.000000 0.000000
RightUpLeg -21.146278 -5.381432 3.465451
RightLeg 20.013669 -0.000000 -0.000000
RightFoot -2.892088 -19.025457 10.994617
RightToeBase -13.253980 -0.000000 0.000000
711
root -0.398788 32.916218 2.802405 0.170410 63.118326 -16.555366
Spine -10.940127 -3.759941 0.842814
Head -16.445367 -47.502253 20.719493
LeftShoulder -25.424126 50.122145 1.111289
LeftArm 50.044223 9.816348 -72.863764
LeftForeArm 8.182131 -0.000000 127.272872
LeftHand 9.937584 -0.000000 4.518495
LeftHandThumb1 -26.253704 0.000000 33.147579
RightShoulder -5.899267 -4.610143 -22.504333
RightArm 21.325699 -34.358164 74.354257
RightForeArm 6.846021 -0.000000 120.817067
RightHand 13.928594 0.000000 -10.874334
RightHandThumb1 -24.326973 -0.000000 -32.862282
LeftUpLeg -17.471859 0.127415 16.037903
LeftLeg 14.885836 -0.000000 -0.000000
LeftFoot -13.780368 14.016445 -17.774392
LeftToeBase -4.972753 -0.000000 0.000000
RightUpLeg -21.205939 -5.052752 3.220068
RightLeg 20.121777 -0.000000 -0.000000
RightFoot -3.511665 -18.423123 11.370730
RightToeBase -12.661334 -0.000000 0.000000
712
root -0.436445 32.896482 2.862189 1.029035 62.445282 -15.635143
Spine -10.933646 -4.007753 0.791241
Head -15.997159 -46.702678 20.127877
LeftShoulder -25.342562 50.116102 1.111078
LeftArm 50.104810 10.031341 -73.093789
LeftForeArm 8.205461 0.000000 127.246589
LeftHand 9.941701 -0.000000 4.524979
LeftHandThumb1 -26.253704 0.000000 33.147579
RightShoulder -5.748050 -4.642881 -22.595674
RightArm 21.484103 -34.257890 74.144654
RightForeArm 6.991297 -0.000000 120.578676
RightHand 13.829890 0.000000 -10.603589
RightHandThumb1 -24.326973 -0.000000 -32.862282
LeftUpLeg -17.508833 0.073846 15.933428
LeftLeg 15.417153 -0.000000 -0.000000
LeftFoot -14.017583 14.001966 -18.071182
LeftToeBase -5.171809 -0.000000 0.000000
RightUpLeg -21.301350 -4.747995 2.938753
RightLeg 20.270030 -0.000000 -0.000000
RightFoot -3.993593 -17.824514 11.664461
RightToeBase -12.381107 -0.000000 0.000000
713
root -0.467294 32.876874 2.918980 1.838202 61.744305 -14.741310
Spine -10.922197 -4.233115 0.702964
Head -15.575264 -45.965317 19.652942
LeftShoulder -25.235571 50.105804 1.176390
LeftArm 50.179620 10.294821 -73.259220
LeftForeArm 8.181900 0.000000 127.208184
LeftHand 9.957527 -0.000000 4.706927
LeftHandThumb1 -26.253704 0.000000 33.147579
RightShoulder -5.601679 -4.612472 -22.678122
RightArm 21.550095 -34.177309 73.990437
RightForeArm 6.986539 -0.000000 120.319411
RightHand 13.971970 0.000000 -10.431753
RightHandThumb1 -24.326973 -0.000000 -32.862282
LeftUpLeg -17.482891 -0.026841 15.823472
LeftLeg 15.904640 -0.000000 -0.000000
LeftFoot -14.173896 14.045862 -18.145008
LeftToeBase -5.515173 -0.000000 0.000000
RightUpLeg -21.388931 -4.354939 2.621320
RightLeg 20.430554 -0.000000 -0.000000
RightFoot -4.429964 -17.277125 11.952205
RightToeBase -12.133028 -0.000000 0.000000
714
root -0.496486 32.857849 2.969108 2.600052 61.080692 -13.872084
Spine -10.881001 -4.458195 0.589504
Head -15.200176 -45.238428 19.232948
LeftShoulder -24.984852 50.038352 1.381325
LeftArm 50.201060 10.525807 -73.424073
LeftForeArm 8.252930 -0.000000 127.190726
LeftHand 9.976567 0.000000 4.694197
LeftHandThumb1 -26.253704 0.000000 33.147579
RightShoulder -5.512419 -4.700105 -22.702325
RightArm 21.643004 -34.152039 73.727376
RightForeArm 7.027456 -0.000000 120.243025
RightHand 13.617044 0.000000 -10.565543
RightHandThumb1 -24.326973 -0.000000 -32.862282
LeftUpLeg -17.440077 -0.316855 15.732938
LeftLeg 16.389878 -0.000000 -0.000000
LeftFoot -14.311077 14.104569 -18.242580
LeftToeBase -5.875930 -0.000000 0.000000
RightUpLeg -21.487787 -4.048632 2.297472
RightLeg 20.614560 -0.000000 -0.000000
RightFoot -4.762218 -16.691776 12.135758
RightToeBase -12.081412 -0.000000 0.000000
715
root -0.516362 32.842931 3.020011 3.252341 60.410466 -13.174696
Spine -10.888554 -4.423491 0.480587
Head -15.016046 -44.737150 19.041862
LeftShoulder -24.499035 49.979833 1.765302
LeftArm 50.334002 10.823024 -73.416467
LeftForeArm 8.332456 -0.000000 127.158540
LeftHand 10.007384 -0.000000 4.823868
LeftHandThumb1 -26.253704 0.000000 33.147579
RightShoulder -5.731704 -4.769267 -22.682903
RightArm 21.538959 -34.117024 73.603930
RightForeArm 7.057438 -0.000000 120.146047
RightHand 13.546033 -0.000000 -10.495650
RightHandThumb1 -24.326973 -0.000000 -32.862282
LeftUpLeg -17.396334 -0.659772 15.721112
LeftLeg 16.825254 -0.000000 -0.000000
LeftFoot -14.414539 14.200278 -18.274364
LeftToeBase -6.472088 -0.000000 0.000000
RightUpLeg -21.607312 -3.740336 2.046380
RightLeg 20.752595 -0.000000 -0.000000
RightFoot -5.001450 -16.164226 12.232974
RightToeBase -12.045094 -0.000000 0.000000
716
root -0.545450 32.826091 3.068422 3.686397 59.729987 -12.608740
Spine -10.779787 -4.666025 0.469423
Head -14.665787 -44.050115 18.700955
LeftShoulder -24.352858 49.903182 1.892229
LeftArm 50.446618 11.047781 -73.404138
LeftForeArm 8.469470 0.000000 127.130743
LeftHand 10.017859 -0.000000 4.856962
LeftHandThumb1 -26.253704 0.000000 33.147579
RightShoulder -5.657207 -4.759504 -22.695135
RightArm 21.544003 -34.054988 73.452463
RightForeArm 7.012749 -0.000000 120.018305
RightHand 13.565635 -0.000000 -10.331676
RightHandThumb1 -24.326973 -0.000000 -32.862282
LeftUpLeg -17.308071 -0.960826 15.767460
LeftLeg 17.355201 -0.000000 -0.000000
LeftFoot -14.475591 14.154717 -18.111240
LeftToeBase -7.022420 -0.000000 0.000000
RightUpLeg -21.669936 -3.384013 1.847115
RightLeg 20.949350 -0.000000 -0.000000
RightFoot -5.255861 -15.722483 12.377685
RightToeBase -12.002467 -0.000000 0.000000
